<?xml version="1.0" encoding="UTF-8" standalone="no"?>
<svg
   xmlns:dc="http://purl.org/dc/elements/1.1/"
   xmlns:cc="http://creativecommons.org/ns#"
   xmlns:rdf="http://www.w3.org/1999/02/22-rdf-syntax-ns#"
   xmlns:svg="http://www.w3.org/2000/svg"
   xmlns="http://www.w3.org/2000/svg"
   xmlns:sodipodi="http://sodipodi.sourceforge.net/DTD/sodipodi-0.dtd"
   xmlns:inkscape="http://www.inkscape.org/namespaces/inkscape"
   width="91.740196mm"
   height="90.039307mm"
   viewBox="0 0 91.740196 90.039307"
   version="1.1"
   id="svg8"
   inkscape:version="1.0.2-2 (e86c870879, 2021-01-15)"
   sodipodi:docname="albi.svg"
   inkscape:export-filename="albi.png"
   inkscape:export-xdpi="150"
   inkscape:export-ydpi="150">
  <title
     id="title133">UdS AlBI Owl</title>
  <defs
     id="defs2" />
  <sodipodi:namedview
     id="base"
     pagecolor="#ffffff"
     bordercolor="#666666"
     borderopacity="1.0"
     inkscape:pageopacity="0.0"
     inkscape:pageshadow="2"
     inkscape:zoom="2.8"
     inkscape:cx="104.49415"
     inkscape:cy="167.46238"
     inkscape:document-units="mm"
     inkscape:current-layer="layer1"
     inkscape:document-rotation="0"
     showgrid="true"
     inkscape:window-width="2119"
     inkscape:window-height="1459"
     inkscape:window-x="480"
     inkscape:window-y="303"
     inkscape:window-maximized="0"
     fit-margin-top="0"
     fit-margin-left="0"
     fit-margin-right="0"
     fit-margin-bottom="0"
     inkscape:pagecheckerboard="true"
     showborder="true"
     borderlayer="true">
    <inkscape:grid
       type="xygrid"
       id="grid22"
       originx="-1.8493934"
       originy="-16.779464" />
  </sodipodi:namedview>
  <metadata
     id="metadata5">
    <rdf:RDF>
      <cc:Work
         rdf:about="">
        <dc:format>image/svg+xml</dc:format>
        <dc:type
           rdf:resource="http://purl.org/dc/dcmitype/StillImage" />
        <dc:title>UdS AlBI Owl</dc:title>
        <dc:creator>
          <cc:Agent>
            <dc:title>Hennig Timm</dc:title>
          </cc:Agent>
        </dc:creator>
        <dc:subject>
          <rdf:Bag>
            <rdf:li>Algorithmic Bioinformatics</rdf:li>
            <rdf:li>Saarland University</rdf:li>
            <rdf:li>owl</rdf:li>
            <rdf:li>tree</rdf:li>
          </rdf:Bag>
        </dc:subject>
        <dc:description>Group logo of Algorithmic Bioinformatics, Saarland University</dc:description>
        <dc:contributor>
          <cc:Agent>
            <dc:title>Christopher Schroeder; Sven Rahmann</dc:title>
          </cc:Agent>
        </dc:contributor>
      </cc:Work>
    </rdf:RDF>
  </metadata>
  <g
     inkscape:label="Layer 1"
     inkscape:groupmode="layer"
     id="layer1"
     transform="translate(-7.5527024,-139.71376)">
    <path
       style="fill:none;stroke:#155724;stroke-width:1.43614;stroke-linecap:butt;stroke-linejoin:miter;stroke-miterlimit:4;stroke-dasharray:none;stroke-opacity:1"
       d="M 13.640809,149.39263 12.317892,178.4968"
       id="path1035"
       sodipodi:nodetypes="cc" />
    <path
       style="fill:none;stroke:#155724;stroke-width:1.5;stroke-linecap:butt;stroke-linejoin:miter;stroke-miterlimit:4;stroke-dasharray:none;stroke-opacity:1"
       d="m 13.640809,218.1843 7.9375,-6.61458"
       id="path1029"
       sodipodi:nodetypes="cc" />
    <path
       style="fill:none;stroke:#155724;stroke-width:1.5;stroke-linecap:butt;stroke-linejoin:miter;stroke-miterlimit:4;stroke-dasharray:none;stroke-opacity:1"
       d="m 85.078309,207.60097 -55.5625,1.32291"
       id="path1031"
       sodipodi:nodetypes="cc" />
    <path
       style="fill:#008000;stroke:#155724;stroke-width:1.5;stroke-linecap:butt;stroke-linejoin:miter;stroke-miterlimit:4;stroke-dasharray:none;stroke-opacity:1"
       d="m 12.317892,181.14263 1.322917,37.04167"
       id="path1033"
       sodipodi:nodetypes="cc" />
    <path
       style="fill:none;stroke:#155724;stroke-width:1.69223;stroke-linecap:butt;stroke-linejoin:miter;stroke-miterlimit:4;stroke-dasharray:none;stroke-opacity:1"
       d="M 30.838726,159.97597 13.640809,178.4968"
       id="path1037"
       sodipodi:nodetypes="cc" />
    <circle
       style="fill:#ffffff;stroke:#155724;stroke-width:1;stroke-miterlimit:4;stroke-dasharray:none;paint-order:fill markers stroke;stop-color:#000000"
       id="path971"
       cx="94.338722"
       cy="224.79889"
       r="4.4541774" />
    <circle
       style="fill:#ffffff;stroke:#155724;stroke-width:1;stroke-miterlimit:4;stroke-dasharray:none;paint-order:fill markers stroke;stop-color:#000000"
       id="path971-6"
       cx="13.640809"
       cy="222.15305"
       r="4.4541774" />
    <circle
       style="fill:#ffffff;stroke:#155724;stroke-width:1;stroke-miterlimit:4;stroke-dasharray:none;paint-order:fill markers stroke;stop-color:#000000"
       id="path971-2"
       cx="89.047058"
       cy="207.60097"
       r="4.4541774" />
    <circle
       style="fill:#ffffff;stroke:#155724;stroke-width:1;stroke-miterlimit:4;stroke-dasharray:none;paint-order:fill markers stroke;stop-color:#000000"
       id="path971-9"
       cx="12.50688"
       cy="182.18207"
       r="4.4541774" />
    <circle
       style="fill:#ffffff;stroke:#155724;stroke-width:1;stroke-miterlimit:4;stroke-dasharray:none;paint-order:fill markers stroke;stop-color:#000000"
       id="path971-1"
       cx="33.484558"
       cy="156.00722"
       r="4.4541774" />
    <circle
       style="fill:#ffffff;stroke:#155724;stroke-width:1;stroke-miterlimit:4;stroke-dasharray:none;paint-order:fill markers stroke;stop-color:#000000"
       id="path971-27"
       cx="13.829797"
       cy="144.66794"
       r="4.4541774" />
    <circle
       style="fill:#ffffff;stroke:#155724;stroke-width:1;stroke-miterlimit:4;stroke-dasharray:none;paint-order:fill markers stroke;stop-color:#000000"
       id="path971-90"
       cx="25.54706"
       cy="208.92389"
       r="4.4541774" />
    <path
       style="fill:none;stroke:#155724;stroke-width:1.5;stroke-linecap:butt;stroke-linejoin:miter;stroke-miterlimit:4;stroke-dasharray:none;stroke-opacity:1"
       d="M 29.515809,210.2468 89.65571,223.76602"
       id="path1033-9"
       sodipodi:nodetypes="cc" />
    <g
       id="g131"
       transform="translate(0,7.4083337)">
      <path
         style="fill:#000080;stroke-width:0.264583"
         d="m 49.703849,183.766 c -0.01424,-8.86442 0.450411,-11.64262 2.535696,-15.16124 2.447695,-4.13013 5.599373,-6.68633 11.714817,-9.50144 2.310077,-1.0634 5.366848,-3.17783 5.821074,-4.02656 0.223385,-0.41739 0.08711,-0.51845 -1.075088,-0.79726 -1.306467,-0.31341 -1.35618,-0.30249 -2.708176,0.59519 l -1.377279,0.91446 -1.339354,-0.89019 -1.339353,-0.89018 -1.533985,0.34839 -1.533985,0.34838 1.506062,1.37646 c 0.828334,0.75705 1.615529,1.37645 1.749323,1.37645 0.729769,0 0.01833,0.63579 -1.653584,1.47775 -1.043265,0.52538 -2.356936,1.25972 -2.919271,1.63185 l -1.022425,0.67661 -0.807942,-0.76863 c -1.434774,-1.36494 -3.19239,-3.88907 -4.286032,-6.1552 l -1.067317,-2.21159 0.592458,-7.97487 c 0.325853,-4.38618 0.657816,-8.36183 0.737696,-8.83477 l 0.145237,-0.8599 h 2.087221 2.087221 v 3.73503 3.73502 l 0.595312,-0.18276 c 2.521573,-0.77412 5.091383,-0.22416 6.873313,1.47095 0.596294,0.56724 1.164475,1.03135 1.262624,1.03135 0.09815,0 0.66633,-0.46411 1.262625,-1.03135 1.441489,-1.37126 3.337537,-1.99907 5.389579,-1.78459 l 1.549879,0.16199 v -3.56782 -3.56782 h 2.116667 c 2.012675,0 2.117661,0.0293 2.13691,0.59532 0.01114,0.32742 0.06461,0.83343 0.118835,1.12448 0.05422,0.29104 0.417972,3.73819 0.808328,7.66035 l 0.70974,7.13118 -0.559062,1.73236 c -0.827874,2.56532 -2.309008,4.90995 -4.537668,7.18311 -2.321925,2.36829 -4.351467,3.74035 -7.58423,5.12728 -5.524021,2.36992 -8.610298,5.47739 -9.73727,9.80413 -0.312648,1.20034 -0.405582,3.09036 -0.405582,8.24843 v 6.69128 l 0.99765,3.08591 2.79018,1.91185 c -3.059622,6.74951 -7.753703,0.27071 -8.665217,-0.93672 -0.911514,-1.20743 -1.426034,-4.06104 -1.426034,-4.06104 l -0.0096,-5.97163 z m 11.014255,-30.95037 c 4.236035,-1.76993 4.236035,-7.46523 0,-9.23516 -1.242852,-0.5193 -2.338797,-0.5193 -3.581649,0 -4.152516,1.73503 -4.269527,7.2634 -0.193551,9.14459 1.299832,0.59991 2.487957,0.62841 3.7752,0.0906 z m -3.970721,-1.19452 c -1.116983,-0.58972 -2.053437,-2.15079 -2.053437,-3.42306 0,-2.01333 1.955418,-3.96875 3.96875,-3.96875 2.013331,0 3.96875,1.95542 3.96875,3.96875 0,1.31289 -0.935916,2.83721 -2.109687,3.43602 -1.303793,0.66515 -2.497763,0.66104 -3.774376,-0.013 z m 15.612387,1.19452 c 4.236034,-1.76993 4.236034,-7.46523 0,-9.23516 -1.242851,-0.5193 -2.338798,-0.5193 -3.581649,0 -4.152516,1.73503 -4.269527,7.2634 -0.193551,9.14459 1.299832,0.59991 2.487957,0.62841 3.7752,0.0906 z m -3.706138,-1.19452 c -1.116982,-0.58972 -2.053437,-2.15079 -2.053437,-3.42306 0,-2.01333 1.955419,-3.96875 3.96875,-3.96875 1.312895,0 2.837209,0.93591 3.436022,2.10968 0.293,0.57433 0.532728,1.41091 0.532728,1.85907 0,1.31289 -0.935916,2.83721 -2.109687,3.43602 -1.303792,0.66515 -2.497762,0.66104 -3.774376,-0.013 z m 4.24553,30.62723 -0.08126,-7.4893 -0.99754,-2.01729 c -0.975133,-1.97198 -2.911814,-4.28024 -4.545745,-5.41792 l -0.780786,-0.54364 1.706828,-0.85958 c 0.938756,-0.47277 2.20453,-1.20094 2.812834,-1.61816 0.608301,-0.41721 1.222232,-0.75857 1.364287,-0.75857 0.539797,0 3.673226,3.74404 5.013536,5.99051 2.447597,4.1024 2.961897,6.72315 2.965204,15.11001 0,0 -0.58921,3.47075 -1.24429,5.03702 -0.879034,2.10174 -2.439381,4.33678 -3.621365,4.8537 -1.181984,0.51691 -4.220537,0.50669 -6.874884,0.83431 l 3.509717,-2.30811 0.854715,-3.32369 z m -15.2948,2.99137 v -1.5875 h 6.879167 6.879166 v 1.5875 1.5875 h -6.879166 -6.879167 z m 0.08277,-5.19299 c -0.06293,-0.16401 -0.07753,-0.87838 -0.03245,-1.5875 l 0.08197,-1.2893 h 6.746875 6.746875 v 1.53068 1.53067 l -6.714425,0.0568 c -4.783999,0.0405 -6.747321,-0.0289 -6.828846,-0.24137 z m 0.975563,-6.50935 c 0,-0.1789 0.386953,-0.89304 0.859896,-1.58699 l 0.859895,-1.26172 4.142254,-5.3e-4 4.142254,-5.3e-4 0.818683,1.23598 c 0.450276,0.6798 0.818684,1.39417 0.818684,1.5875 0,0.28168 -1.156994,0.35155 -5.820833,0.35155 -4.428128,0 -5.820833,-0.0778 -5.820833,-0.32526 z m -0.877504,-32.65502 c -0.09946,-0.0995 -0.18083,-0.7563 -0.18083,-1.45965 v -1.27882 h 6.892994 6.892994 l -0.07997,1.38906 -0.07997,1.38907 -6.632191,0.0706 c -3.647705,0.0388 -6.713564,-0.0108 -6.813021,-0.11025 z"
         id="path847"
         sodipodi:nodetypes="sssssscccccsssscsscsscccccssssscccsssscsssssccczccssssssscssssccsssssscsssssccccsscsssssszcccccccccccccssccccccsssscccssssssccccccss" />
      <path
         style="fill:#000080;stroke-width:0.192881"
         d="m 49.744328,204.05613 c -0.152347,-0.2465 0.09306,-2.50449 0.319958,-2.9439 0.324776,-0.62897 -0.97573,-0.42 -2.100599,0.33753 -1.011655,0.68129 -1.313694,0.77144 -1.869848,0.55801 -0.471329,-0.18086 -0.364515,-0.61059 0.618119,-2.48681 l 0.90915,-1.73593 2.07348,-0.0547 2.073473,-0.0547 c 0.247904,-1.48778 1.643714,-1.79099 1.382543,-3.14051 h 22.340261 c -1.5946,1.55039 -0.941459,1.71981 -1.155705,3.15353 h 1.810384 1.810392 l 0.768088,1.30195 c 1.070953,1.81532 1.377599,2.7141 1.006145,2.94902 -0.512787,0.3243 -1.043003,0.19483 -2.005939,-0.48979 -0.631672,-0.4491 -1.166408,-0.67508 -1.597444,-0.67508 -0.556875,0 -0.622682,0.0474 -0.468352,0.33754 0.09876,0.18565 0.210309,0.94512 0.247881,1.68771 l 0.06831,1.35017 -0.700758,0.0586 c -0.660941,0.0552 -0.792285,-0.0407 -2.311178,-1.6877 l -1.610413,-1.74623 h -2.545944 -2.545938 l -0.40391,0.56723 c -0.660729,0.9279 -1.93693,1.03028 -1.93693,0.15537 0,-0.55058 0.765231,-3.26746 1.002805,-3.56035 0.114037,-0.1406 0.838145,-0.25597 1.815866,-0.28933 l 1.626195,-0.0554 -0.596986,-0.72329 c -0.953401,-1.28996 -8.889214,-1.08661 -9.844474,0 l -0.635878,0.72329 1.659145,0.0554 c 1.008521,0.0337 1.735895,0.14795 1.854854,0.29129 0.219261,0.26419 0.996776,3.10348 0.996776,3.63996 0,0.43756 -0.790309,0.65273 -1.332204,0.36273 -0.222053,-0.11884 -0.543907,-0.43002 -0.715236,-0.69149 -0.305051,-0.46557 -0.36426,-0.47541 -2.858205,-0.47541 h -2.546711 l -1.591932,1.73592 c -1.400766,1.52747 -1.669978,1.73593 -2.241762,1.73593 -0.3574,0 -0.702777,-0.0857 -0.767505,-0.19041 z"
         id="path881-3"
         sodipodi:nodetypes="cssssccccccccssssssccscccsssscccccssssscsscc" />
      <path
         style="fill:#000080;stroke-width:0.264583"
         d="m 59.001514,189.92859 c 0,0.1789 0.386955,0.89304 0.859895,1.58699 l 0.8599,1.26172 4.14225,5.3e-4 4.14225,5.3e-4 0.81869,-1.23598 c 0.45027,-0.6798 0.81868,-1.39417 0.81868,-1.5875 0,-0.28168 -1.15699,-0.35155 -5.82083,-0.35155 -4.42813,0 -5.820835,0.0778 -5.820835,0.32526 z"
         id="path847-6-7"
         sodipodi:nodetypes="sscccssss" />
    </g>
  </g>
</svg>
