<?xml version="1.0" encoding="UTF-8" standalone="no"?>
<svg
   xmlns:dc="http://purl.org/dc/elements/1.1/"
   xmlns:cc="http://creativecommons.org/ns#"
   xmlns:rdf="http://www.w3.org/1999/02/22-rdf-syntax-ns#"
   xmlns:svg="http://www.w3.org/2000/svg"
   xmlns="http://www.w3.org/2000/svg"
   xmlns:sodipodi="http://sodipodi.sourceforge.net/DTD/sodipodi-0.dtd"
   xmlns:inkscape="http://www.inkscape.org/namespaces/inkscape"
   fill-opacity="1"
   color-rendering="auto"
   color-interpolation="auto"
   text-rendering="auto"
   stroke="black"
   stroke-linecap="square"
   width="833"
   stroke-miterlimit="10"
   shape-rendering="auto"
   stroke-opacity="1"
   fill="black"
   stroke-dasharray="none"
   font-weight="normal"
   stroke-width="1"
   height="526"
   font-family="'Dialog'"
   font-style="normal"
   stroke-linejoin="miter"
   font-size="12px"
   stroke-dashoffset="0"
   image-rendering="auto"
   version="1.1"
   id="svg202"
   sodipodi:docname="classification.svg"
   inkscape:version="0.92.1 15371">
  <metadata
     id="metadata206">
    <rdf:RDF>
      <cc:Work
         rdf:about="">
        <dc:format>image/svg+xml</dc:format>
        <dc:type
           rdf:resource="http://purl.org/dc/dcmitype/StillImage" />
      </cc:Work>
    </rdf:RDF>
  </metadata>
  <sodipodi:namedview
     pagecolor="#ffffff"
     bordercolor="#666666"
     borderopacity="1"
     objecttolerance="10"
     gridtolerance="10"
     guidetolerance="10"
     inkscape:pageopacity="0"
     inkscape:pageshadow="2"
     inkscape:window-width="1855"
     inkscape:window-height="1056"
     id="namedview204"
     showgrid="false"
     inkscape:zoom="1.4021609"
     inkscape:cx="357.75064"
     inkscape:cy="205.40298"
     inkscape:window-x="65"
     inkscape:window-y="24"
     inkscape:window-maximized="1"
     inkscape:current-layer="g200" />
  <!--Generated by ySVG 2.5-->
  <defs
     id="genericDefs" />
  <g
     id="g200">
    <defs
       id="defs1">
      <clipPath
         clipPathUnits="userSpaceOnUse"
         id="clipPath1">
        <path
           d="M0 0 L833 0 L833 526 L0 526 L0 0 Z"
           id="path3" />
      </clipPath>
      <clipPath
         clipPathUnits="userSpaceOnUse"
         id="clipPath2">
        <path
           d="M143 265 L976 265 L976 791 L143 791 L143 265 Z"
           id="path6" />
      </clipPath>
    </defs>
    <g
       fill="rgb(130,178,222)"
       text-rendering="geometricPrecision"
       shape-rendering="geometricPrecision"
       transform="matrix(1,0,0,1,-143,-265)"
       stroke="rgb(130,178,222)"
       id="g12"
       style="font-variant-east_asian:normal;opacity:1;vector-effect:none;fill:#8fc4e6;fill-opacity:1;stroke:#184a6b;stroke-width:1.33333332;stroke-linecap:butt;stroke-linejoin:miter;stroke-miterlimit:4;stroke-dasharray:none;stroke-dashoffset:0;stroke-opacity:1;marker:none">
      <rect
         x="443"
         y="537"
         clip-path="url(#clipPath2)"
         width="491.5"
         rx="4"
         ry="4"
         height="215"
         stroke="none"
         id="rect10"
         style="font-variant-east_asian:normal;vector-effect:none;fill:#8fc4e6;fill-opacity:1;stroke:#184a6b;stroke-width:1.33333332;stroke-linecap:butt;stroke-linejoin:miter;stroke-miterlimit:4;stroke-dasharray:none;stroke-dashoffset:0;stroke-opacity:1;marker:none" />
    </g>
    <g
       text-rendering="geometricPrecision"
       stroke-miterlimit="1.45"
       stroke-width="2"
       shape-rendering="geometricPrecision"
       transform="matrix(1,0,0,1,-143,-265)"
       stroke-linecap="butt"
       id="g16">
      <rect
         x="443"
         y="537"
         clip-path="url(#clipPath2)"
         fill="none"
         width="491.5"
         rx="4"
         ry="4"
         height="215"
         id="rect14" />
    </g>
    <g
       fill="rgb(203,203,203)"
       text-rendering="geometricPrecision"
       shape-rendering="geometricPrecision"
       transform="matrix(1,0,0,1,-143,-265)"
       stroke="rgb(203,203,203)"
       id="g20">
      <rect
         x="366"
         width="340"
         height="158"
         y="280"
         clip-path="url(#clipPath2)"
         stroke="none"
         id="rect18" />
    </g>
    <g
       text-rendering="geometricPrecision"
       stroke-miterlimit="1.45"
       stroke-width="2"
       shape-rendering="geometricPrecision"
       transform="matrix(1,0,0,1,-143,-265)"
       stroke-linecap="butt"
       id="g28">
      <rect
         fill="none"
         x="366"
         width="340"
         height="158"
         y="280"
         clip-path="url(#clipPath2)"
         id="rect22" />
      <text
         x="521.6738"
         y="323.1699"
         clip-path="url(#clipPath2)"
         font-family="sans-serif"
         stroke="none"
         stroke-width="1"
         xml:space="preserve"
         id="text24">Data</text>
      <text
         x="501.084"
         y="337.1387"
         clip-path="url(#clipPath2)"
         font-family="sans-serif"
         stroke="none"
         stroke-width="1"
         xml:space="preserve"
         id="text26">1 Mio reads</text>
    </g>
    <g
       fill="rgb(229,229,229)"
       text-rendering="geometricPrecision"
       shape-rendering="geometricPrecision"
       transform="matrix(1,0,0,1,-143,-265)"
       stroke="rgb(229,229,229)"
       id="g32">
      <rect
         x="552.5"
         width="130"
         height="66"
         y="360"
         clip-path="url(#clipPath2)"
         stroke="none"
         id="rect30" />
    </g>
    <g
       text-rendering="geometricPrecision"
       stroke-miterlimit="1.45"
       stroke-width="2"
       shape-rendering="geometricPrecision"
       transform="matrix(1,0,0,1,-143,-265)"
       stroke-linecap="butt"
       id="g40">
      <rect
         fill="none"
         x="552.5"
         width="130"
         height="66"
         y="360"
         clip-path="url(#clipPath2)"
         id="rect34" />
      <text
         x="610.4307"
         y="390.1699"
         clip-path="url(#clipPath2)"
         font-family="sans-serif"
         stroke="none"
         stroke-width="1"
         xml:space="preserve"
         id="text36">FP</text>
      <text
         x="604.1641"
         y="404.1387"
         clip-path="url(#clipPath2)"
         font-family="sans-serif"
         stroke="none"
         stroke-width="1"
         xml:space="preserve"
         id="text38">50%</text>
    </g>
    <g
       fill="rgb(229,229,229)"
       text-rendering="geometricPrecision"
       shape-rendering="geometricPrecision"
       transform="matrix(1,0,0,1,-143,-265)"
       stroke="rgb(229,229,229)"
       id="g44">
      <rect
         x="392.5"
         width="130"
         height="66"
         y="360"
         clip-path="url(#clipPath2)"
         stroke="none"
         id="rect42" />
    </g>
    <g
       text-rendering="geometricPrecision"
       stroke-miterlimit="1.45"
       stroke-width="2"
       shape-rendering="geometricPrecision"
       transform="matrix(1,0,0,1,-143,-265)"
       stroke-linecap="butt"
       id="g52">
      <rect
         fill="none"
         x="392.5"
         width="130"
         height="66"
         y="360"
         clip-path="url(#clipPath2)"
         id="rect46" />
      <text
         x="450.2168"
         y="390.1699"
         clip-path="url(#clipPath2)"
         font-family="sans-serif"
         stroke="none"
         stroke-width="1"
         xml:space="preserve"
         id="text48">TP</text>
      <text
         x="444.1641"
         y="404.1387"
         clip-path="url(#clipPath2)"
         font-family="sans-serif"
         stroke="none"
         stroke-width="1"
         xml:space="preserve"
         id="text50">50%</text>
    </g>
    <g
       fill="rgb(203,203,203)"
       text-rendering="geometricPrecision"
       shape-rendering="geometricPrecision"
       transform="matrix(1,0,0,1,-143,-265)"
       stroke="rgb(203,203,203)"
       id="g56">
      <rect
         x="458"
         width="156"
         height="80"
         y="549"
         clip-path="url(#clipPath2)"
         stroke="none"
         id="rect54" />
    </g>
    <g
       text-rendering="geometricPrecision"
       stroke-miterlimit="1.45"
       stroke-width="2"
       shape-rendering="geometricPrecision"
       transform="matrix(1,0,0,1,-143,-265)"
       stroke-linecap="butt"
       id="g64">
      <rect
         fill="none"
         x="458"
         width="156"
         height="80"
         y="549"
         clip-path="url(#clipPath2)"
         id="rect58" />
      <text
         x="476.0059"
         y="586.1699"
         clip-path="url(#clipPath2)"
         font-family="sans-serif"
         stroke="none"
         stroke-width="1"
         xml:space="preserve"
         id="text60">Training &amp; test data</text>
      <text
         x="491.2637"
         y="600.1387"
         clip-path="url(#clipPath2)"
         font-family="sans-serif"
         stroke="none"
         stroke-width="1"
         xml:space="preserve"
         id="text62">80% (800,000)</text>
    </g>
    <g
       fill="rgb(203,203,203)"
       text-rendering="geometricPrecision"
       shape-rendering="geometricPrecision"
       transform="matrix(1,0,0,1,-143,-265)"
       stroke="rgb(203,203,203)"
       id="g68">
      <rect
         x="757.5"
         width="156"
         height="80"
         y="319"
         clip-path="url(#clipPath2)"
         stroke="none"
         id="rect66" />
    </g>
    <g
       text-rendering="geometricPrecision"
       stroke-miterlimit="1.45"
       stroke-width="2"
       shape-rendering="geometricPrecision"
       transform="matrix(1,0,0,1,-143,-265)"
       stroke-linecap="butt"
       id="g76">
      <rect
         fill="none"
         x="757.5"
         width="156"
         height="80"
         y="319"
         clip-path="url(#clipPath2)"
         id="rect70" />
      <text
         x="796.5938"
         y="356.1699"
         clip-path="url(#clipPath2)"
         font-family="sans-serif"
         stroke="none"
         stroke-width="1"
         xml:space="preserve"
         id="text72">Holdout data</text>
      <text
         x="790.7637"
         y="370.1387"
         clip-path="url(#clipPath2)"
         font-family="sans-serif"
         stroke="none"
         stroke-width="1"
         xml:space="preserve"
         id="text74">20% (200,000)</text>
    </g>
    <g
       fill="rgb(203,203,203)"
       text-rendering="geometricPrecision"
       shape-rendering="geometricPrecision"
       transform="matrix(1,0,0,1,-143,-265)"
       stroke="rgb(203,203,203)"
       id="g80">
      <rect
         x="471"
         width="130"
         height="66"
         y="671"
         clip-path="url(#clipPath2)"
         stroke="none"
         id="rect78" />
    </g>
    <g
       text-rendering="geometricPrecision"
       stroke-miterlimit="1.45"
       stroke-width="2"
       shape-rendering="geometricPrecision"
       transform="matrix(1,0,0,1,-143,-265)"
       stroke-linecap="butt"
       id="g88">
      <rect
         fill="none"
         x="471"
         width="130"
         height="66"
         y="671"
         clip-path="url(#clipPath2)"
         id="rect82" />
      <text
         x="496.0215"
         y="701.1699"
         clip-path="url(#clipPath2)"
         font-family="sans-serif"
         stroke="none"
         stroke-width="1"
         xml:space="preserve"
         id="text84">Training data</text>
      <text
         x="491.2637"
         y="715.1387"
         clip-path="url(#clipPath2)"
         font-family="sans-serif"
         stroke="none"
         stroke-width="1"
         xml:space="preserve"
         id="text86">80% (640,000)</text>
    </g>
    <g
       fill="rgb(203,203,203)"
       text-rendering="geometricPrecision"
       shape-rendering="geometricPrecision"
       transform="matrix(1,0,0,1,-143,-265)"
       stroke="rgb(203,203,203)"
       id="g92">
      <rect
         x="791.5"
         width="130"
         height="66"
         y="556"
         clip-path="url(#clipPath2)"
         stroke="none"
         id="rect90" />
    </g>
    <g
       text-rendering="geometricPrecision"
       stroke-miterlimit="1.45"
       stroke-width="2"
       shape-rendering="geometricPrecision"
       transform="matrix(1,0,0,1,-143,-265)"
       stroke-linecap="butt"
       id="g100">
      <rect
         fill="none"
         x="791.5"
         width="130"
         height="66"
         y="556"
         clip-path="url(#clipPath2)"
         id="rect94" />
      <text
         x="828.2432"
         y="586.1699"
         clip-path="url(#clipPath2)"
         font-family="sans-serif"
         stroke="none"
         stroke-width="1"
         xml:space="preserve"
         id="text96">Test data</text>
      <text
         x="811.7637"
         y="600.1387"
         clip-path="url(#clipPath2)"
         font-family="sans-serif"
         stroke="none"
         stroke-width="1"
         xml:space="preserve"
         id="text98">20% (160,000)</text>
    </g>
    <g
       fill="rgb(157,209,183)"
       text-rendering="geometricPrecision"
       shape-rendering="geometricPrecision"
       transform="matrix(1,0,0,1,-143,-265)"
       stroke="rgb(157,209,183)"
       id="g104"
       style="font-variant-east_asian:normal;opacity:1;vector-effect:none;fill:#a3fdff;fill-opacity:1;stroke:#00595b;stroke-width:1.33333332;stroke-linecap:butt;stroke-linejoin:miter;stroke-miterlimit:4;stroke-dasharray:none;stroke-dashoffset:0;stroke-opacity:1;marker:none">
      <rect
         x="631.5"
         y="671"
         clip-path="url(#clipPath2)"
         width="130"
         rx="4"
         ry="4"
         height="66"
         stroke="none"
         id="rect102"
         style="font-variant-east_asian:normal;vector-effect:none;fill:#a3fdff;fill-opacity:1;stroke:#00595b;stroke-width:1.33333332;stroke-linecap:butt;stroke-linejoin:miter;stroke-miterlimit:4;stroke-dasharray:none;stroke-dashoffset:0;stroke-opacity:1;marker:none" />
    </g>
    <g
       text-rendering="geometricPrecision"
       stroke-miterlimit="1.45"
       stroke-width="2"
       shape-rendering="geometricPrecision"
       transform="matrix(1,0,0,1,-143,-265)"
       stroke-linecap="butt"
       id="g110">
      <rect
         x="631.5"
         y="671"
         clip-path="url(#clipPath2)"
         fill="none"
         width="130"
         rx="4"
         ry="4"
         height="66"
         id="rect106" />
      <text
         x="653.0322"
         y="708.1543"
         clip-path="url(#clipPath2)"
         font-family="sans-serif"
         stroke="none"
         stroke-width="1"
         xml:space="preserve"
         id="text108">Build classifier</text>
    </g>
    <g
       fill="rgb(157,209,183)"
       text-rendering="geometricPrecision"
       shape-rendering="geometricPrecision"
       transform="matrix(1,0,0,1,-143,-265)"
       stroke="rgb(157,209,183)"
       id="g114"
       style="font-variant-east_asian:normal;opacity:1;vector-effect:none;fill:#a3fdff;fill-opacity:1;stroke:#00595b;stroke-width:1.33333332;stroke-linecap:butt;stroke-linejoin:miter;stroke-miterlimit:4;stroke-dasharray:none;stroke-dashoffset:0;stroke-opacity:1;marker:none">
      <rect
         x="791.5"
         y="671"
         clip-path="url(#clipPath2)"
         width="130"
         rx="4"
         ry="4"
         height="66"
         stroke="none"
         id="rect112"
         style="font-variant-east_asian:normal;vector-effect:none;fill:#a3fdff;fill-opacity:1;stroke:#00595b;stroke-width:1.33333332;stroke-linecap:butt;stroke-linejoin:miter;stroke-miterlimit:4;stroke-dasharray:none;stroke-dashoffset:0;stroke-opacity:1;marker:none" />
    </g>
    <g
       text-rendering="geometricPrecision"
       stroke-miterlimit="1.45"
       stroke-width="2"
       shape-rendering="geometricPrecision"
       transform="matrix(1,0,0,1,-143,-265)"
       stroke-linecap="butt"
       id="g120">
      <rect
         x="791.5"
         y="671"
         clip-path="url(#clipPath2)"
         fill="none"
         width="130"
         rx="4"
         ry="4"
         height="66"
         id="rect116" />
      <text
         x="811.1543"
         y="708.1543"
         clip-path="url(#clipPath2)"
         font-family="sans-serif"
         stroke="none"
         stroke-width="1"
         xml:space="preserve"
         id="text118">Apply classifier</text>
    </g>
    <g
       fill="rgb(203,203,203)"
       text-rendering="geometricPrecision"
       shape-rendering="geometricPrecision"
       transform="matrix(1,0,0,1,-143,-265)"
       stroke="rgb(203,203,203)"
       id="g124">
      <rect
         x="158.5"
         width="156"
         height="80"
         y="319"
         clip-path="url(#clipPath2)"
         stroke="none"
         id="rect122" />
    </g>
    <g
       text-rendering="geometricPrecision"
       stroke-miterlimit="1.45"
       stroke-width="2"
       shape-rendering="geometricPrecision"
       transform="matrix(1,0,0,1,-143,-265)"
       stroke-linecap="butt"
       id="g132">
      <rect
         fill="none"
         x="158.5"
         width="156"
         height="80"
         y="319"
         clip-path="url(#clipPath2)"
         id="rect126" />
      <text
         x="196.1055"
         y="356.1699"
         clip-path="url(#clipPath2)"
         font-family="sans-serif"
         stroke="none"
         stroke-width="1"
         xml:space="preserve"
         id="text128">Random data</text>
      <text
         x="211.6885"
         y="370.1387"
         clip-path="url(#clipPath2)"
         font-family="sans-serif"
         stroke="none"
         stroke-width="1"
         xml:space="preserve"
         id="text130">200,000</text>
    </g>
    <g
       stroke-linecap="butt"
       transform="matrix(1,0,0,1,-143,-265)"
       fill="rgb(102,102,102)"
       text-rendering="geometricPrecision"
       shape-rendering="geometricPrecision"
       stroke="rgb(102,102,102)"
       stroke-width="3"
       stroke-miterlimit="1.45"
       id="g138">
      <path
         d="M442.2939 490.2347 L442.2227 490.24 L436.4615 490.6696 L436.3904 490.6747 L436.3177 490.6872 L430.6141 491.6665 L430.5438 491.6786 L430.4749 491.6974 L424.8716 493.2252 L424.8005 493.2445 L424.7316 493.2707 L419.2714 495.346 L419.2025 495.3722 L419.1365 495.405 L413.8621 498.0265 L413.7961 498.0592 L413.7317 498.0997 L408.6859 501.2663 L408.6235 501.3054 L408.5635 501.3521 L403.7892 505.0627 L403.7292 505.1093 L403.6742 505.1618 L399.214 509.4152 L399.1606 509.466 L399.1111 509.5237 L395.1021 514.2048 L395.0527 514.2625 L395.0093 514.3248 L391.5591 519.2906 L391.5169 519.3511 L391.48 519.4175 L388.5875 524.6253 L388.5515 524.6896 L388.5214 524.7594 L386.1854 530.1663 L386.1562 530.2339 L386.1337 530.3041 L384.3531 535.8674 L384.3313 535.9354 L384.3157 536.0074 L383.0894 541.6843 L383.0742 541.7541 L383.0656 541.8273 L382.3924 547.5751 L382.384 547.646 L382.3825 547.7197 L382.2613 553.4955 L382.2598 553.5646 L382.265 553.6357 L382.6947 559.3969 L382.6998 559.4681 L382.7123 559.5406 L383.6916 565.2443 L383.7037 565.3146 L383.7224 565.3835 L385.2503 570.9868 L385.2696 571.0579 L385.2958 571.1268 L387.3711 576.587 L387.3972 576.6559 L387.4301 576.7219 L390.0516 581.9963 L390.0843 582.0623 L390.1248 582.1266 L393.2914 587.1724 L393.3305 587.2349 L393.3772 587.2949 L397.0877 592.0693 L397.1344 592.1293 L397.1869 592.1842 L401.4403 596.6443 L401.4911 596.6978 L401.5488 596.7472 L406.2299 600.7562 L406.2876 600.8057 L406.35 600.8491 L411.3158 604.2993 L411.3762 604.3414 L411.4426 604.3784 L416.6504 607.2709 L416.7147 607.3068 L416.7845 607.337 L422.1914 609.673 L422.259 609.7022 L422.3292 609.7247 L427.8925 611.5053 L427.9605 611.5272 L428.0325 611.5427 L430.9883 612.1812 L430.9883 612.1812 L427.548 616.8367 L443.078 612.053 L428.746 604.3942 L430.9932 609.1131 L430.9932 609.1131 L428.7384 608.626 L428.7384 608.626 L423.3135 606.8898 L423.3135 606.8898 L418.0433 604.6129 L418.0433 604.6129 L412.9657 601.7926 L408.1243 598.4288 L408.1243 598.4288 L403.5583 594.5184 L399.4096 590.168 L399.4096 590.168 L395.7917 585.5128 L392.7047 580.5939 L390.1489 575.4517 L388.1258 570.1287 L386.636 564.6651 L385.6812 559.1036 L385.2621 553.4851 L385.3804 547.8528 L386.0368 542.2481 L387.2325 536.7126 L387.2325 536.7126 L388.9684 531.289 L391.2458 526.0177 L394.0654 520.9412 L397.4297 516.099 L397.4297 516.099 L401.34 511.5332 L405.6906 507.3844 L410.3455 503.7667 L410.3455 503.7667 L415.2647 500.6795 L415.2647 500.6795 L420.4066 498.1238 L420.4066 498.1238 L425.7298 496.1007 L425.7298 496.1007 L431.1932 494.611 L431.1932 494.611 L436.7549 493.656 L436.7549 493.656 L442.3733 493.2371 L442.3733 493.2371 L448.0056 493.3553 L448.0056 493.3553 L453.6103 494.0117 L453.6103 494.0117 L459.1457 495.2075 L459.1457 495.2075 L464.5694 496.9433 L464.5694 496.9433 L469.8407 499.2207 L469.8407 499.2207 L474.9174 502.0404 L474.9174 502.0404 L479.7592 505.4045 L484.3252 509.3149 L488.4739 513.6653 L488.4739 513.6653 L492.0918 518.3205 L495.1788 523.2394 L497.7346 528.3817 L499.7577 533.7047 L500.7528 537.3543 L503.6478 536.5674 L502.6332 532.8465 L502.6139 532.7754 L502.5877 532.7065 L500.5124 527.2463 L500.4862 527.1774 L500.4534 527.1114 L497.8319 521.837 L497.7992 521.771 L497.7587 521.7067 L494.5921 516.6609 L494.553 516.5984 L494.5063 516.5385 L490.7957 511.764 L490.7491 511.704 L490.6966 511.6491 L486.4432 507.1889 L486.3924 507.1355 L486.3347 507.0861 L481.6536 503.077 L481.5959 503.0276 L481.5335 502.9842 L476.5677 499.534 L476.5073 499.4919 L476.4409 499.4549 L471.2331 496.5624 L471.1688 496.5265 L471.099 496.4963 L465.6921 494.1603 L465.6245 494.1311 L465.5543 494.1086 L459.9909 492.3281 L459.923 492.3062 L459.851 492.2906 L454.174 491.0643 L454.1043 491.0491 L454.0311 491.0405 L448.2833 490.3673 L448.2124 490.3589 L448.1387 490.3574 L442.3629 490.2362 L442.2939 490.2347 Z"
         stroke="none"
         clip-path="url(#clipPath2)"
         id="path134" />
      <path
         fill="none"
         d="M442.2939 490.2347 L442.2227 490.24 L436.4615 490.6696 L436.3904 490.6747 L436.3177 490.6872 L430.6141 491.6665 L430.5438 491.6786 L430.4749 491.6974 L424.8716 493.2252 L424.8005 493.2445 L424.7316 493.2707 L419.2714 495.346 L419.2025 495.3722 L419.1365 495.405 L413.8621 498.0265 L413.7961 498.0592 L413.7317 498.0997 L408.6859 501.2663 L408.6235 501.3054 L408.5635 501.3521 L403.7892 505.0627 L403.7292 505.1093 L403.6742 505.1618 L399.214 509.4152 L399.1606 509.466 L399.1111 509.5237 L395.1021 514.2048 L395.0527 514.2625 L395.0093 514.3248 L391.5591 519.2906 L391.5169 519.3511 L391.48 519.4175 L388.5875 524.6253 L388.5515 524.6896 L388.5214 524.7594 L386.1854 530.1663 L386.1562 530.2339 L386.1337 530.3041 L384.3531 535.8674 L384.3313 535.9354 L384.3157 536.0074 L383.0894 541.6843 L383.0742 541.7541 L383.0656 541.8273 L382.3924 547.5751 L382.384 547.646 L382.3825 547.7197 L382.2613 553.4955 L382.2598 553.5646 L382.265 553.6357 L382.6947 559.3969 L382.6998 559.4681 L382.7123 559.5406 L383.6916 565.2443 L383.7037 565.3146 L383.7224 565.3835 L385.2503 570.9868 L385.2696 571.0579 L385.2958 571.1268 L387.3711 576.587 L387.3972 576.6559 L387.4301 576.7219 L390.0516 581.9963 L390.0843 582.0623 L390.1248 582.1266 L393.2914 587.1724 L393.3305 587.2349 L393.3772 587.2949 L397.0877 592.0693 L397.1344 592.1293 L397.1869 592.1842 L401.4403 596.6443 L401.4911 596.6978 L401.5488 596.7472 L406.2299 600.7562 L406.2876 600.8057 L406.35 600.8491 L411.3158 604.2993 L411.3762 604.3414 L411.4426 604.3784 L416.6504 607.2709 L416.7147 607.3068 L416.7845 607.337 L422.1914 609.673 L422.259 609.7022 L422.3292 609.7247 L427.8925 611.5053 L427.9605 611.5272 L428.0325 611.5427 L430.9883 612.1812 L430.9883 612.1812 L427.548 616.8367 L443.078 612.053 L428.746 604.3942 L430.9932 609.1131 L430.9932 609.1131 L428.7384 608.626 L428.7384 608.626 L423.3135 606.8898 L423.3135 606.8898 L418.0433 604.6129 L418.0433 604.6129 L412.9657 601.7926 L408.1243 598.4288 L408.1243 598.4288 L403.5583 594.5184 L399.4096 590.168 L399.4096 590.168 L395.7917 585.5128 L392.7047 580.5939 L390.1489 575.4517 L388.1258 570.1287 L386.636 564.6651 L385.6812 559.1036 L385.2621 553.4851 L385.3804 547.8528 L386.0368 542.2481 L387.2325 536.7126 L387.2325 536.7126 L388.9684 531.289 L391.2458 526.0177 L394.0654 520.9412 L397.4297 516.099 L397.4297 516.099 L401.34 511.5332 L405.6906 507.3844 L410.3455 503.7667 L410.3455 503.7667 L415.2647 500.6795 L415.2647 500.6795 L420.4066 498.1238 L420.4066 498.1238 L425.7298 496.1007 L425.7298 496.1007 L431.1932 494.611 L431.1932 494.611 L436.7549 493.656 L436.7549 493.656 L442.3733 493.2371 L442.3733 493.2371 L448.0056 493.3553 L448.0056 493.3553 L453.6103 494.0117 L453.6103 494.0117 L459.1457 495.2075 L459.1457 495.2075 L464.5694 496.9433 L464.5694 496.9433 L469.8407 499.2207 L469.8407 499.2207 L474.9174 502.0404 L474.9174 502.0404 L479.7592 505.4045 L484.3252 509.3149 L488.4739 513.6653 L488.4739 513.6653 L492.0918 518.3205 L495.1788 523.2394 L497.7346 528.3817 L499.7577 533.7047 L500.7528 537.3543 L503.6478 536.5674 L502.6332 532.8465 L502.6139 532.7754 L502.5877 532.7065 L500.5124 527.2463 L500.4862 527.1774 L500.4534 527.1114 L497.8319 521.837 L497.7992 521.771 L497.7587 521.7067 L494.5921 516.6609 L494.553 516.5984 L494.5063 516.5385 L490.7957 511.764 L490.7491 511.704 L490.6966 511.6491 L486.4432 507.1889 L486.3924 507.1355 L486.3347 507.0861 L481.6536 503.077 L481.5959 503.0276 L481.5335 502.9842 L476.5677 499.534 L476.5073 499.4919 L476.4409 499.4549 L471.2331 496.5624 L471.1688 496.5265 L471.099 496.4963 L465.6921 494.1603 L465.6245 494.1311 L465.5543 494.1086 L459.9909 492.3281 L459.923 492.3062 L459.851 492.2906 L454.174 491.0643 L454.1043 491.0491 L454.0311 491.0405 L448.2833 490.3673 L448.2124 490.3589 L448.1387 490.3574 L442.3629 490.2362 L442.2939 490.2347 Z"
         stroke-width="1"
         clip-path="url(#clipPath2)"
         stroke="black"
         id="path136" />
    </g>
    <g
       text-rendering="geometricPrecision"
       stroke-miterlimit="1.45"
       shape-rendering="geometricPrecision"
       font-family="sans-serif"
       transform="matrix(1,0,0,1,-143,-265)"
       stroke-linecap="butt"
       id="g144">
      <text
         x="385.4609"
         xml:space="preserve"
         y="470.2974"
         clip-path="url(#clipPath2)"
         stroke="none"
         id="text140">Random sampling</text>
      <text
         x="395.2988"
         xml:space="preserve"
         y="484.2662"
         clip-path="url(#clipPath2)"
         stroke="none"
         id="text142">100-fold MCCV</text>
    </g>
    <g
       stroke-linecap="butt"
       transform="matrix(1,0,0,1,-143,-265)"
       fill="rgb(102,102,102)"
       text-rendering="geometricPrecision"
       shape-rendering="geometricPrecision"
       stroke="rgb(102,102,102)"
       stroke-width="3"
       stroke-miterlimit="1.45"
       id="g150">
      <path
         d="M534.5 438 L534.5 536.85 L529.75 534 L536 549 L542.25 534 L537.5 536.85 L537.5 438 Z"
         stroke="none"
         clip-path="url(#clipPath2)"
         id="path146" />
      <path
         fill="none"
         d="M534.5 438 L534.5 536.85 L529.75 534 L536 549 L542.25 534 L537.5 536.85 L537.5 438 Z"
         stroke-width="1"
         clip-path="url(#clipPath2)"
         stroke="black"
         id="path148" />
    </g>
    <g
       stroke-linecap="butt"
       transform="matrix(1,0,0,1,-143,-265)"
       fill="rgb(102,102,102)"
       text-rendering="geometricPrecision"
       shape-rendering="geometricPrecision"
       stroke="rgb(102,102,102)"
       stroke-width="3"
       stroke-miterlimit="1.45"
       id="g156">
      <path
         d="M742.5 352.75 L745.35 357.5 L706 357.5 L706 360.5 L745.35 360.5 L742.5 365.25 L757.5 359 L742.5 352.75 Z"
         stroke="none"
         clip-path="url(#clipPath2)"
         id="path152" />
      <path
         fill="none"
         d="M742.5 352.75 L745.35 357.5 L706 357.5 L706 360.5 L745.35 360.5 L742.5 365.25 L757.5 359 L742.5 352.75 Z"
         stroke-width="1"
         clip-path="url(#clipPath2)"
         stroke="black"
         id="path154" />
    </g>
    <g
       stroke-linecap="butt"
       transform="matrix(1,0,0,1,-143,-265)"
       fill="rgb(102,102,102)"
       text-rendering="geometricPrecision"
       shape-rendering="geometricPrecision"
       stroke="rgb(102,102,102)"
       stroke-width="3"
       stroke-miterlimit="1.45"
       id="g162">
      <path
         d="M534.5 629 L534.5 658.85 L529.75 656 L536 671 L542.25 656 L537.5 658.85 L537.5 629 Z"
         stroke="none"
         clip-path="url(#clipPath2)"
         id="path158" />
      <path
         fill="none"
         d="M534.5 629 L534.5 658.85 L529.75 656 L536 671 L542.25 656 L537.5 658.85 L537.5 629 Z"
         stroke-width="1"
         clip-path="url(#clipPath2)"
         stroke="black"
         id="path160" />
    </g>
    <g
       stroke-linecap="butt"
       transform="matrix(1,0,0,1,-143,-265)"
       fill="rgb(102,102,102)"
       text-rendering="geometricPrecision"
       shape-rendering="geometricPrecision"
       stroke="rgb(102,102,102)"
       stroke-width="3"
       stroke-miterlimit="1.45"
       id="g168">
      <path
         d="M776.5 582.75 L779.35 587.5 L614 587.5 L614 590.5 L779.35 590.5 L776.5 595.25 L791.5 589 L776.5 582.75 Z"
         stroke="none"
         clip-path="url(#clipPath2)"
         id="path164" />
      <path
         fill="none"
         d="M776.5 582.75 L779.35 587.5 L614 587.5 L614 590.5 L779.35 590.5 L776.5 595.25 L791.5 589 L776.5 582.75 Z"
         stroke-width="1"
         clip-path="url(#clipPath2)"
         stroke="black"
         id="path166" />
    </g>
    <g
       stroke-linecap="butt"
       transform="matrix(1,0,0,1,-143,-265)"
       fill="rgb(102,102,102)"
       text-rendering="geometricPrecision"
       shape-rendering="geometricPrecision"
       stroke="rgb(102,102,102)"
       stroke-width="3"
       stroke-miterlimit="1.45"
       id="g174">
      <path
         d="M616.5432 697.75 L619.3932 702.5 L601 702.5 L601 705.5 L619.3932 705.5 L616.5432 710.25 L631.5432 704 L616.5432 697.75 Z"
         stroke="none"
         clip-path="url(#clipPath2)"
         id="path170" />
      <path
         fill="none"
         d="M616.5432 697.75 L619.3932 702.5 L601 702.5 L601 705.5 L619.3932 705.5 L616.5432 710.25 L631.5432 704 L616.5432 697.75 Z"
         stroke-width="1"
         clip-path="url(#clipPath2)"
         stroke="black"
         id="path172" />
    </g>
    <g
       stroke-linecap="butt"
       transform="matrix(1,0,0,1,-143,-265)"
       fill="rgb(102,102,102)"
       text-rendering="geometricPrecision"
       shape-rendering="geometricPrecision"
       stroke="rgb(102,102,102)"
       stroke-width="3"
       stroke-miterlimit="1.45"
       id="g180">
      <path
         d="M776.4855 697.75 L779.3354 702.5 L761.4609 702.5 L761.4609 705.5 L779.3354 705.5 L776.4855 710.25 L791.4855 704 L776.4855 697.75 Z"
         stroke="none"
         clip-path="url(#clipPath2)"
         id="path176" />
      <path
         fill="none"
         d="M776.4855 697.75 L779.3354 702.5 L761.4609 702.5 L761.4609 705.5 L779.3354 705.5 L776.4855 710.25 L791.4855 704 L776.4855 697.75 Z"
         stroke-width="1"
         clip-path="url(#clipPath2)"
         stroke="black"
         id="path178" />
    </g>
    <g
       stroke-linecap="butt"
       transform="matrix(1,0,0,1,-143,-265)"
       fill="rgb(102,102,102)"
       text-rendering="geometricPrecision"
       shape-rendering="geometricPrecision"
       stroke="rgb(102,102,102)"
       stroke-width="3"
       stroke-miterlimit="1.45"
       id="g186">
      <path
         d="M855 622 L855 658.8177 L850.25 655.9678 L856.5 670.9678 L862.75 655.9678 L858 658.8177 L858 622 Z"
         stroke="none"
         clip-path="url(#clipPath2)"
         id="path182" />
      <path
         fill="none"
         d="M855 622 L855 658.8177 L850.25 655.9678 L856.5 670.9678 L862.75 655.9678 L858 658.8177 L858 622 Z"
         stroke-width="1"
         clip-path="url(#clipPath2)"
         stroke="black"
         id="path184" />
    </g>
    <g
       stroke-linecap="butt"
       transform="matrix(1,0,0,1,-143,-265)"
       fill="rgb(102,102,102)"
       text-rendering="geometricPrecision"
       shape-rendering="geometricPrecision"
       stroke="rgb(102,102,102)"
       stroke-width="3"
       stroke-miterlimit="1.45"
       id="g192">
      <path
         d="M913.5 357.5 L913.5 360.5 L959.5 360.5 L959.5 702.5 L933.6309 702.5 L936.4808 697.75 L921.4808 704 L936.4808 710.25 L933.6309 705.5 L962.5 705.5 L962.5 704 L962.5 359 L962.5 357.5 Z"
         stroke="none"
         clip-path="url(#clipPath2)"
         id="path188" />
      <path
         fill="none"
         d="M913.5 357.5 L913.5 360.5 L959.5 360.5 L959.5 702.5 L933.6309 702.5 L936.4808 697.75 L921.4808 704 L936.4808 710.25 L933.6309 705.5 L962.5 705.5 L962.5 704 L962.5 359 L962.5 357.5 Z"
         stroke-width="1"
         clip-path="url(#clipPath2)"
         stroke="black"
         id="path190" />
    </g>
    <g
       stroke-linecap="butt"
       transform="matrix(1,0,0,1,-143,-265)"
       fill="rgb(102,102,102)"
       text-rendering="geometricPrecision"
       shape-rendering="geometricPrecision"
       stroke="rgb(102,102,102)"
       stroke-width="3"
       stroke-miterlimit="1.45"
       id="g198">
      <path
         d="M235 399 L235 775.3333 L235 776.8333 L860.3784 776.8333 L860.3784 775.3333 L860.3784 752.5641 L860.3784 749.1389 L865.1284 751.9889 L858.8784 736.9889 L852.6284 751.9889 L857.3784 749.1389 L857.3784 752.5641 L857.3784 773.8333 L238 773.8333 L238 399 Z"
         stroke="none"
         clip-path="url(#clipPath2)"
         id="path194" />
      <path
         fill="none"
         d="M235 399 L235 775.3333 L235 776.8333 L860.3784 776.8333 L860.3784 775.3333 L860.3784 752.5641 L860.3784 749.1389 L865.1284 751.9889 L858.8784 736.9889 L852.6284 751.9889 L857.3784 749.1389 L857.3784 752.5641 L857.3784 773.8333 L238 773.8333 L238 399 Z"
         stroke-width="1"
         clip-path="url(#clipPath2)"
         stroke="black"
         id="path196" />
    </g>
  </g>
</svg>
